<mxfile host="app.diagrams.net" modified="2021-04-22T08:47:47.332Z" agent="5.0 (Windows)" etag="M_YXMvdiA4reco78h4sj" version="14.5.1" type="github">
  <diagram id="C5RBs43oDa-KdzZeNtuy" name="Page-1">
    <mxGraphModel dx="1038" dy="547" grid="1" gridSize="10" guides="1" tooltips="1" connect="1" arrows="1" fold="1" page="1" pageScale="1" pageWidth="827" pageHeight="1169" math="0" shadow="0">
      <root>
        <mxCell id="WIyWlLk6GJQsqaUBKTNV-0" />
        <mxCell id="WIyWlLk6GJQsqaUBKTNV-1" parent="WIyWlLk6GJQsqaUBKTNV-0" />
        <mxCell id="tq0yo84my99M850M_xK6-0" value="" style="rounded=0;whiteSpace=wrap;html=1;" vertex="1" parent="WIyWlLk6GJQsqaUBKTNV-1">
          <mxGeometry x="344" y="45" width="70" height="30" as="geometry" />
        </mxCell>
        <mxCell id="tq0yo84my99M850M_xK6-1" value="&lt;font style=&quot;font-size: 14px&quot;&gt;Adatok&lt;/font&gt;" style="text;html=1;strokeColor=none;fillColor=none;align=center;verticalAlign=middle;whiteSpace=wrap;rounded=0;" vertex="1" parent="WIyWlLk6GJQsqaUBKTNV-1">
          <mxGeometry x="358" y="50" width="40" height="20" as="geometry" />
        </mxCell>
        <mxCell id="tq0yo84my99M850M_xK6-13" value="" style="ellipse;whiteSpace=wrap;html=1;aspect=fixed;fillColor=#33FF33;" vertex="1" parent="WIyWlLk6GJQsqaUBKTNV-1">
          <mxGeometry x="150" y="199" width="39" height="39" as="geometry" />
        </mxCell>
        <mxCell id="tq0yo84my99M850M_xK6-16" value="" style="ellipse;whiteSpace=wrap;html=1;aspect=fixed;fillColor=#FF0000;" vertex="1" parent="WIyWlLk6GJQsqaUBKTNV-1">
          <mxGeometry x="250" y="199" width="39" height="39" as="geometry" />
        </mxCell>
        <mxCell id="tq0yo84my99M850M_xK6-17" value="" style="ellipse;whiteSpace=wrap;html=1;aspect=fixed;fillColor=#33FF33;" vertex="1" parent="WIyWlLk6GJQsqaUBKTNV-1">
          <mxGeometry x="570" y="199" width="39" height="39" as="geometry" />
        </mxCell>
        <mxCell id="tq0yo84my99M850M_xK6-18" value="" style="ellipse;whiteSpace=wrap;html=1;aspect=fixed;fillColor=#FF0000;" vertex="1" parent="WIyWlLk6GJQsqaUBKTNV-1">
          <mxGeometry x="470" y="199" width="39" height="39" as="geometry" />
        </mxCell>
        <mxCell id="tq0yo84my99M850M_xK6-19" value="" style="ellipse;whiteSpace=wrap;html=1;aspect=fixed;fillColor=#FF0000;" vertex="1" parent="WIyWlLk6GJQsqaUBKTNV-1">
          <mxGeometry x="410" y="199" width="39" height="39" as="geometry" />
        </mxCell>
        <mxCell id="tq0yo84my99M850M_xK6-20" value="" style="ellipse;whiteSpace=wrap;html=1;aspect=fixed;fillColor=#FF0000;" vertex="1" parent="WIyWlLk6GJQsqaUBKTNV-1">
          <mxGeometry x="305" y="199" width="39" height="39" as="geometry" />
        </mxCell>
        <mxCell id="tq0yo84my99M850M_xK6-21" value="" style="ellipse;whiteSpace=wrap;html=1;aspect=fixed;fillColor=#FF0000;" vertex="1" parent="WIyWlLk6GJQsqaUBKTNV-1">
          <mxGeometry x="520" y="199" width="39" height="39" as="geometry" />
        </mxCell>
        <mxCell id="tq0yo84my99M850M_xK6-22" value="" style="ellipse;whiteSpace=wrap;html=1;aspect=fixed;fillColor=#33FF33;" vertex="1" parent="WIyWlLk6GJQsqaUBKTNV-1">
          <mxGeometry x="359" y="199" width="39" height="39" as="geometry" />
        </mxCell>
        <mxCell id="tq0yo84my99M850M_xK6-23" value="" style="ellipse;whiteSpace=wrap;html=1;aspect=fixed;fillColor=#FF0000;" vertex="1" parent="WIyWlLk6GJQsqaUBKTNV-1">
          <mxGeometry x="200" y="199" width="39" height="39" as="geometry" />
        </mxCell>
        <mxCell id="tq0yo84my99M850M_xK6-24" value="" style="ellipse;whiteSpace=wrap;html=1;aspect=fixed;fillColor=#33FF33;" vertex="1" parent="WIyWlLk6GJQsqaUBKTNV-1">
          <mxGeometry x="200" y="130" width="39" height="39" as="geometry" />
        </mxCell>
        <mxCell id="tq0yo84my99M850M_xK6-25" value="" style="ellipse;whiteSpace=wrap;html=1;aspect=fixed;fillColor=#33FF33;" vertex="1" parent="WIyWlLk6GJQsqaUBKTNV-1">
          <mxGeometry x="359.5" y="130" width="39" height="39" as="geometry" />
        </mxCell>
        <mxCell id="tq0yo84my99M850M_xK6-26" value="" style="ellipse;whiteSpace=wrap;html=1;aspect=fixed;fillColor=#33FF33;" vertex="1" parent="WIyWlLk6GJQsqaUBKTNV-1">
          <mxGeometry x="520" y="130" width="39" height="39" as="geometry" />
        </mxCell>
        <mxCell id="tq0yo84my99M850M_xK6-28" value="" style="endArrow=classic;html=1;exitX=0;exitY=1;exitDx=0;exitDy=0;entryX=0.5;entryY=0;entryDx=0;entryDy=0;" edge="1" parent="WIyWlLk6GJQsqaUBKTNV-1" source="tq0yo84my99M850M_xK6-0" target="tq0yo84my99M850M_xK6-24">
          <mxGeometry width="50" height="50" relative="1" as="geometry">
            <mxPoint x="390" y="310" as="sourcePoint" />
            <mxPoint x="440" y="260" as="targetPoint" />
          </mxGeometry>
        </mxCell>
        <mxCell id="tq0yo84my99M850M_xK6-29" value="" style="endArrow=classic;html=1;exitX=0.5;exitY=1;exitDx=0;exitDy=0;entryX=0.5;entryY=0;entryDx=0;entryDy=0;" edge="1" parent="WIyWlLk6GJQsqaUBKTNV-1" source="tq0yo84my99M850M_xK6-0" target="tq0yo84my99M850M_xK6-25">
          <mxGeometry width="50" height="50" relative="1" as="geometry">
            <mxPoint x="390" y="310" as="sourcePoint" />
            <mxPoint x="440" y="260" as="targetPoint" />
          </mxGeometry>
        </mxCell>
        <mxCell id="tq0yo84my99M850M_xK6-30" value="" style="endArrow=classic;html=1;exitX=1;exitY=1;exitDx=0;exitDy=0;entryX=0;entryY=0;entryDx=0;entryDy=0;" edge="1" parent="WIyWlLk6GJQsqaUBKTNV-1" source="tq0yo84my99M850M_xK6-0" target="tq0yo84my99M850M_xK6-26">
          <mxGeometry width="50" height="50" relative="1" as="geometry">
            <mxPoint x="390" y="310" as="sourcePoint" />
            <mxPoint x="440" y="260" as="targetPoint" />
          </mxGeometry>
        </mxCell>
        <mxCell id="tq0yo84my99M850M_xK6-31" value="" style="endArrow=none;html=1;exitX=0;exitY=0.5;exitDx=0;exitDy=0;entryX=0.5;entryY=0;entryDx=0;entryDy=0;" edge="1" parent="WIyWlLk6GJQsqaUBKTNV-1" source="tq0yo84my99M850M_xK6-24" target="tq0yo84my99M850M_xK6-13">
          <mxGeometry width="50" height="50" relative="1" as="geometry">
            <mxPoint x="390" y="310" as="sourcePoint" />
            <mxPoint x="440" y="260" as="targetPoint" />
          </mxGeometry>
        </mxCell>
        <mxCell id="tq0yo84my99M850M_xK6-32" value="" style="endArrow=none;html=1;exitX=0.5;exitY=1;exitDx=0;exitDy=0;entryX=0.5;entryY=0;entryDx=0;entryDy=0;" edge="1" parent="WIyWlLk6GJQsqaUBKTNV-1" source="tq0yo84my99M850M_xK6-24" target="tq0yo84my99M850M_xK6-23">
          <mxGeometry width="50" height="50" relative="1" as="geometry">
            <mxPoint x="390" y="310" as="sourcePoint" />
            <mxPoint x="440" y="260" as="targetPoint" />
          </mxGeometry>
        </mxCell>
        <mxCell id="tq0yo84my99M850M_xK6-33" value="" style="endArrow=none;html=1;exitX=1;exitY=0.5;exitDx=0;exitDy=0;entryX=0.5;entryY=0;entryDx=0;entryDy=0;" edge="1" parent="WIyWlLk6GJQsqaUBKTNV-1" source="tq0yo84my99M850M_xK6-24" target="tq0yo84my99M850M_xK6-16">
          <mxGeometry width="50" height="50" relative="1" as="geometry">
            <mxPoint x="390" y="310" as="sourcePoint" />
            <mxPoint x="440" y="260" as="targetPoint" />
          </mxGeometry>
        </mxCell>
        <mxCell id="tq0yo84my99M850M_xK6-34" value="" style="endArrow=none;html=1;exitX=0;exitY=0.5;exitDx=0;exitDy=0;entryX=0.5;entryY=0;entryDx=0;entryDy=0;" edge="1" parent="WIyWlLk6GJQsqaUBKTNV-1" source="tq0yo84my99M850M_xK6-25" target="tq0yo84my99M850M_xK6-20">
          <mxGeometry width="50" height="50" relative="1" as="geometry">
            <mxPoint x="390" y="310" as="sourcePoint" />
            <mxPoint x="440" y="260" as="targetPoint" />
          </mxGeometry>
        </mxCell>
        <mxCell id="tq0yo84my99M850M_xK6-35" value="" style="endArrow=none;html=1;exitX=0.5;exitY=1;exitDx=0;exitDy=0;entryX=0.5;entryY=0;entryDx=0;entryDy=0;" edge="1" parent="WIyWlLk6GJQsqaUBKTNV-1" source="tq0yo84my99M850M_xK6-25" target="tq0yo84my99M850M_xK6-22">
          <mxGeometry width="50" height="50" relative="1" as="geometry">
            <mxPoint x="390" y="310" as="sourcePoint" />
            <mxPoint x="440" y="260" as="targetPoint" />
          </mxGeometry>
        </mxCell>
        <mxCell id="tq0yo84my99M850M_xK6-36" value="" style="endArrow=none;html=1;exitX=1;exitY=0.5;exitDx=0;exitDy=0;entryX=0.5;entryY=0;entryDx=0;entryDy=0;" edge="1" parent="WIyWlLk6GJQsqaUBKTNV-1" source="tq0yo84my99M850M_xK6-25" target="tq0yo84my99M850M_xK6-19">
          <mxGeometry width="50" height="50" relative="1" as="geometry">
            <mxPoint x="390" y="310" as="sourcePoint" />
            <mxPoint x="440" y="260" as="targetPoint" />
          </mxGeometry>
        </mxCell>
        <mxCell id="tq0yo84my99M850M_xK6-37" value="" style="endArrow=none;html=1;exitX=0;exitY=0.5;exitDx=0;exitDy=0;entryX=0.5;entryY=0;entryDx=0;entryDy=0;" edge="1" parent="WIyWlLk6GJQsqaUBKTNV-1" source="tq0yo84my99M850M_xK6-26" target="tq0yo84my99M850M_xK6-18">
          <mxGeometry width="50" height="50" relative="1" as="geometry">
            <mxPoint x="390" y="310" as="sourcePoint" />
            <mxPoint x="440" y="260" as="targetPoint" />
          </mxGeometry>
        </mxCell>
        <mxCell id="tq0yo84my99M850M_xK6-38" value="" style="endArrow=none;html=1;exitX=0.5;exitY=1;exitDx=0;exitDy=0;entryX=0.5;entryY=0;entryDx=0;entryDy=0;" edge="1" parent="WIyWlLk6GJQsqaUBKTNV-1" source="tq0yo84my99M850M_xK6-26" target="tq0yo84my99M850M_xK6-21">
          <mxGeometry width="50" height="50" relative="1" as="geometry">
            <mxPoint x="390" y="310" as="sourcePoint" />
            <mxPoint x="440" y="260" as="targetPoint" />
          </mxGeometry>
        </mxCell>
        <mxCell id="tq0yo84my99M850M_xK6-39" value="" style="endArrow=none;html=1;exitX=1;exitY=0.5;exitDx=0;exitDy=0;entryX=0.5;entryY=0;entryDx=0;entryDy=0;" edge="1" parent="WIyWlLk6GJQsqaUBKTNV-1" source="tq0yo84my99M850M_xK6-26" target="tq0yo84my99M850M_xK6-17">
          <mxGeometry width="50" height="50" relative="1" as="geometry">
            <mxPoint x="390" y="310" as="sourcePoint" />
            <mxPoint x="440" y="260" as="targetPoint" />
          </mxGeometry>
        </mxCell>
        <mxCell id="tq0yo84my99M850M_xK6-40" value="&lt;font style=&quot;font-size: 14px&quot;&gt;1. döntési fa&lt;/font&gt;" style="text;html=1;strokeColor=none;fillColor=none;align=center;verticalAlign=middle;whiteSpace=wrap;rounded=0;" vertex="1" parent="WIyWlLk6GJQsqaUBKTNV-1">
          <mxGeometry x="160" y="245" width="101" height="40" as="geometry" />
        </mxCell>
        <mxCell id="tq0yo84my99M850M_xK6-41" value="&lt;font style=&quot;font-size: 14px&quot;&gt;2. döntési fa&lt;/font&gt;" style="text;html=1;strokeColor=none;fillColor=none;align=center;verticalAlign=middle;whiteSpace=wrap;rounded=0;" vertex="1" parent="WIyWlLk6GJQsqaUBKTNV-1">
          <mxGeometry x="332.75" y="250" width="90.5" height="30" as="geometry" />
        </mxCell>
        <mxCell id="tq0yo84my99M850M_xK6-42" value="&lt;font style=&quot;font-size: 14px&quot;&gt;N. döntési fa&lt;/font&gt;" style="text;html=1;strokeColor=none;fillColor=none;align=center;verticalAlign=middle;whiteSpace=wrap;rounded=0;" vertex="1" parent="WIyWlLk6GJQsqaUBKTNV-1">
          <mxGeometry x="489" y="245" width="101" height="40" as="geometry" />
        </mxCell>
        <mxCell id="tq0yo84my99M850M_xK6-62" value="&lt;font style=&quot;font-size: 14px&quot;&gt;N. eredmény&lt;/font&gt;" style="rounded=0;whiteSpace=wrap;html=1;fillColor=#FFFFFF;" vertex="1" parent="WIyWlLk6GJQsqaUBKTNV-1">
          <mxGeometry x="490" y="290" width="104" height="30" as="geometry" />
        </mxCell>
        <mxCell id="tq0yo84my99M850M_xK6-64" value="&lt;font size=&quot;3&quot;&gt;2. eredmény&lt;br&gt;&lt;/font&gt;" style="rounded=0;whiteSpace=wrap;html=1;fillColor=#FFFFFF;" vertex="1" parent="WIyWlLk6GJQsqaUBKTNV-1">
          <mxGeometry x="327" y="290" width="104" height="30" as="geometry" />
        </mxCell>
        <mxCell id="tq0yo84my99M850M_xK6-65" value="&lt;font style=&quot;font-size: 14px&quot;&gt;1. eredmény&lt;br&gt;&lt;/font&gt;" style="rounded=0;whiteSpace=wrap;html=1;fillColor=#FFFFFF;" vertex="1" parent="WIyWlLk6GJQsqaUBKTNV-1">
          <mxGeometry x="167.5" y="290" width="104" height="30" as="geometry" />
        </mxCell>
        <mxCell id="tq0yo84my99M850M_xK6-66" value="&lt;font style=&quot;font-size: 14px&quot;&gt;Eredmények átlagolása&lt;/font&gt;" style="rounded=0;whiteSpace=wrap;html=1;fillColor=#FFFFFF;" vertex="1" parent="WIyWlLk6GJQsqaUBKTNV-1">
          <mxGeometry x="300.25" y="350" width="157.5" height="30" as="geometry" />
        </mxCell>
        <mxCell id="tq0yo84my99M850M_xK6-67" value="" style="endArrow=classic;html=1;exitX=0.5;exitY=1;exitDx=0;exitDy=0;entryX=0;entryY=0.5;entryDx=0;entryDy=0;" edge="1" parent="WIyWlLk6GJQsqaUBKTNV-1" source="tq0yo84my99M850M_xK6-65" target="tq0yo84my99M850M_xK6-66">
          <mxGeometry width="50" height="50" relative="1" as="geometry">
            <mxPoint x="390" y="310" as="sourcePoint" />
            <mxPoint x="440" y="260" as="targetPoint" />
            <Array as="points">
              <mxPoint x="220" y="365" />
            </Array>
          </mxGeometry>
        </mxCell>
        <mxCell id="tq0yo84my99M850M_xK6-68" value="" style="endArrow=classic;html=1;exitX=0.5;exitY=1;exitDx=0;exitDy=0;entryX=0.5;entryY=0;entryDx=0;entryDy=0;" edge="1" parent="WIyWlLk6GJQsqaUBKTNV-1" source="tq0yo84my99M850M_xK6-64" target="tq0yo84my99M850M_xK6-66">
          <mxGeometry width="50" height="50" relative="1" as="geometry">
            <mxPoint x="390" y="310" as="sourcePoint" />
            <mxPoint x="440" y="260" as="targetPoint" />
          </mxGeometry>
        </mxCell>
        <mxCell id="tq0yo84my99M850M_xK6-69" value="" style="endArrow=classic;html=1;exitX=0.5;exitY=1;exitDx=0;exitDy=0;entryX=1;entryY=0.5;entryDx=0;entryDy=0;" edge="1" parent="WIyWlLk6GJQsqaUBKTNV-1" source="tq0yo84my99M850M_xK6-62" target="tq0yo84my99M850M_xK6-66">
          <mxGeometry width="50" height="50" relative="1" as="geometry">
            <mxPoint x="390" y="310" as="sourcePoint" />
            <mxPoint x="440" y="260" as="targetPoint" />
            <Array as="points">
              <mxPoint x="542" y="365" />
            </Array>
          </mxGeometry>
        </mxCell>
      </root>
    </mxGraphModel>
  </diagram>
</mxfile>
